<?xml version="1.0" encoding="UTF-8"?>
<svg id="Layer_1" data-name="Layer 1" xmlns="http://www.w3.org/2000/svg" viewBox="0 0 408.76 371.11">
  <defs>
    <style>
      .cls-1 {
        fill: #3389fe;
      }

      .cls-2 {
        fill: #2864ef;
      }

      .cls-3 {
        fill: #1acefb;
      }

      .cls-4 {
        fill: #3489fe;
      }
    </style>
  </defs>
  <path class="cls-3" d="M96.2,35.84c7.35,0,12.27,5.63,12.28,11.97s-5,11.93-11.93,11.93h-60.65c-6.93,0-11.93-5.68-11.93-11.94s5-11.94,11.93-11.94l60.3-.02Z"/>
  <path class="cls-3" d="M72.25,83.74c7.35,0,12.27,5.63,12.28,11.97s-5.01,11.93-11.93,11.93H11.95C5.05,107.64,0,101.96,0,95.7s5.05-11.94,11.95-11.94l60.3-.02Z"/>
  <path class="cls-1" d="M296.32,72.39l5.98,3.94c6.19,4.83,9.82,11.71,9.83,19.77l.05,47.54,71.77-.02c12.68,0,21.4,8.04,24.8,19.56v9.39c-.42.61-1.02,1.68-1.37,2.68-3.37,9.62-12.05,16.23-22.66,16.23h-96.46c-13.35,0-23.55-10.46-23.92-23.43l-.37-14.19-37.72,37.63,55.01,55.17c9.47,9.5,9.02,24.52-.37,33.91l-83.74,83.7c-9.61,9.6-24.96,8.86-33.96-.52-8.66-9.03-9.24-23.84.19-33.29l67-67.13-38.64-37.8-16.36-17.38c-7.84-8.33-8.28-19.42-3.88-29.17,26.48-26.42,51.52-54.83,78.55-80.15l21.91-20.53c8.37-7.85,15.41-6.32,24.35-5.9Z"/>
  <path class="cls-3" d="M96.2,131.65c7.35,0,12.27,5.63,12.28,11.97s-5,11.93-11.93,11.93h-60.65c-6.93,0-11.93-5.68-11.93-11.94s5.01-11.94,11.93-11.94l60.3-.02Z"/>
  <path class="cls-2" d="M191.75,225.51L53.92,363.85c-9.65,9.69-24.7,9.53-34.05.27s-9.81-24.09-.16-33.71l151.81-151.46c-4.4,9.75-3.96,20.84,3.88,29.17l16.36,17.38Z"/>
  <path class="cls-2" d="M296.32,72.39c-8.94-.43-15.98-1.95-24.35,5.9l-21.91,20.53-36.73-26.16-51.27,51.33c-9.75,9.76-24.71,10.22-34.44.57-8.96-8.89-9.75-24.06-.18-33.63L193.62,24.75c7.92-7.92,20.6-9.3,29.91-2.84l72.79,50.48Z"/>
  <circle class="cls-4" cx="348.08" cy="35.82" r="35.82"/>
</svg>